# xmcd
#
# Track frame offsets:
#	150
#	16809
#	42752
#	59766
#	80192
#	98896
#	126581
#	150773
#	165973
#	186294
#	205795
#	220587
#	232280
#	245109
#	260733
#
# Disc length: 3865 seconds
#
# Revision: 2
# Processed by: cddbd v1.5.2PL0 Copyright (c) Steve Scherf et al.
# Submitted via: audiograbber 1.83.01
#
DISCID=d40f170f
DTITLE=The Coyote Problem - Wire
DYEAR=2005
DGENRE=Country Rock
TTITLE0=Any Port In A Storm
TTITLE1=Goin To Vegas
TTITLE2=It's Easy
TTITLE3=Hold On
TTITLE4=It's Always 4:20 Somewheres
TTITLE5=Crosses On Fire
TTITLE6=I'll Let Go
TTITLE7=Pull Me Through
TTITLE8=Tattooed
TTITLE9=My Way
TTITLE10=Fit To Be Tied
TTITLE11=You're So Damn Pretty
TTITLE12=Hold Back And Let It Go
TTITLE13=We Got High
TTITLE14=Your're Never Alone
EXTD=Submitted by ecto@cox.net
EXTT0=
EXTT1=
EXTT2=
EXTT3=
EXTT4=
EXTT5=
EXTT6=
EXTT7=
EXTT8=
EXTT9=
EXTT10=
EXTT11=
EXTT12=
EXTT13=
EXTT14=
PLAYORDER=
